<?xml version="1.0" standalone="no"?>
<!DOCTYPE svg PUBLIC "-//W3C//DTD SVG 20010904//EN"
 "http://www.w3.org/TR/2001/REC-SVG-20010904/DTD/svg10.dtd">
<svg version="1.0" xmlns="http://www.w3.org/2000/svg"
 width="64.000000pt" height="64.000000pt" viewBox="0 0 64.000000 64.000000"
 preserveAspectRatio="xMidYMid meet">

<g transform="translate(0.000000,64.000000) scale(0.100000,-0.100000)"
fill="#000000" stroke="none">
<path d="M523 558 c-24 -5 -43 -13 -43 -18 0 -4 16 -4 35 0 44 10 44 0 -1 -50
-44 -48 -89 -77 -168 -106 -34 -13 -51 -23 -39 -23 54 -2 138 42 201 105 l63
63 6 -30 c5 -24 23 -52 23 -35 0 21 -23 106 -28 105 -4 -1 -26 -5 -49 -11z"/>
<path d="M80 455 c0 -8 -7 -15 -15 -15 -13 0 -15 -26 -15 -175 0 -110 -4 -175
-10 -175 -5 0 -10 -4 -10 -10 0 -6 104 -10 291 -10 261 0 291 2 285 16 -3 9
-6 85 -6 170 l0 154 -40 0 -40 0 0 -160 c0 -136 -2 -160 -15 -160 -13 0 -15
21 -15 126 l0 125 -37 -3 -38 -3 -3 -122 c-3 -136 -22 -173 -22 -43 l0 80 -40
0 -40 0 0 -80 c0 -73 -2 -80 -20 -80 -19 0 -20 7 -20 171 0 162 -1 171 -20
176 -11 3 -20 12 -20 19 0 11 -18 14 -75 14 -60 0 -75 -3 -75 -15z m108 -12
c-15 -2 -42 -2 -60 0 -18 2 -6 4 27 4 33 0 48 -2 33 -4z m62 -188 l0 -165 -25
0 c-22 0 -25 4 -25 35 0 35 0 35 -45 35 -45 0 -45 0 -45 -35 0 -28 -4 -35 -20
-35 -19 0 -20 7 -20 165 l0 165 90 0 90 0 0 -165z m330 -10 c0 -148 -1 -155
-20 -155 -19 0 -20 7 -20 155 0 148 1 155 20 155 19 0 20 -7 20 -155z m-100
-40 l0 -115 -25 0 -25 0 0 115 0 115 25 0 25 0 0 -115z m-110 -40 c0 -73 -1
-75 -25 -75 -24 0 -25 2 -25 68 0 74 3 82 32 82 16 0 18 -9 18 -75z m-190 -50
c0 -18 -5 -25 -20 -25 -15 0 -20 7 -20 25 0 18 5 25 20 25 15 0 20 -7 20 -25z"/>
<path d="M80 400 c0 -5 7 -10 15 -10 8 0 15 5 15 10 0 6 -7 10 -15 10 -8 0
-15 -4 -15 -10z"/>
<path d="M140 400 c0 -5 9 -10 21 -10 11 0 17 5 14 10 -3 6 -13 10 -21 10 -8
0 -14 -4 -14 -10z"/>
<path d="M205 400 c-3 -5 3 -10 15 -10 12 0 18 5 15 10 -3 6 -10 10 -15 10 -5
0 -12 -4 -15 -10z"/>
<path d="M80 350 c0 -5 7 -10 15 -10 8 0 15 5 15 10 0 6 -7 10 -15 10 -8 0
-15 -4 -15 -10z"/>
<path d="M140 350 c0 -5 9 -10 21 -10 11 0 17 5 14 10 -3 6 -13 10 -21 10 -8
0 -14 -4 -14 -10z"/>
<path d="M205 350 c-3 -5 3 -10 15 -10 12 0 18 5 15 10 -3 6 -10 10 -15 10 -5
0 -12 -4 -15 -10z"/>
<path d="M80 300 c0 -5 7 -10 15 -10 8 0 15 5 15 10 0 6 -7 10 -15 10 -8 0
-15 -4 -15 -10z"/>
<path d="M140 300 c0 -5 9 -10 21 -10 11 0 17 5 14 10 -3 6 -13 10 -21 10 -8
0 -14 -4 -14 -10z"/>
<path d="M205 300 c-3 -5 3 -10 15 -10 12 0 18 5 15 10 -3 6 -10 10 -15 10 -5
0 -12 -4 -15 -10z"/>
<path d="M80 250 c0 -5 7 -10 15 -10 8 0 15 5 15 10 0 6 -7 10 -15 10 -8 0
-15 -4 -15 -10z"/>
<path d="M140 250 c0 -5 9 -10 21 -10 11 0 17 5 14 10 -3 6 -13 10 -21 10 -8
0 -14 -4 -14 -10z"/>
<path d="M205 250 c-3 -5 3 -10 15 -10 12 0 18 5 15 10 -3 6 -10 10 -15 10 -5
0 -12 -4 -15 -10z"/>
<path d="M80 200 c0 -5 7 -10 15 -10 8 0 15 5 15 10 0 6 -7 10 -15 10 -8 0
-15 -4 -15 -10z"/>
<path d="M140 200 c0 -5 9 -10 21 -10 11 0 17 5 14 10 -3 6 -13 10 -21 10 -8
0 -14 -4 -14 -10z"/>
<path d="M205 200 c-3 -5 3 -10 15 -10 12 0 18 5 15 10 -3 6 -10 10 -15 10 -5
0 -12 -4 -15 -10z"/>
</g>
</svg>
