<?xml version="1.0" standalone="no"?>
<!DOCTYPE svg PUBLIC "-//W3C//DTD SVG 20010904//EN"
 "http://www.w3.org/TR/2001/REC-SVG-20010904/DTD/svg10.dtd">
<svg version="1.0" xmlns="http://www.w3.org/2000/svg"
 width="64.000000pt" height="64.000000pt" viewBox="0 0 64.000000 64.000000"
 preserveAspectRatio="xMidYMid meet">

<g transform="translate(0.000000,64.000000) scale(0.100000,-0.100000)"
fill="#000000" stroke="none">
<path d="M476 605 c-11 -8 -17 -18 -13 -21 4 -4 13 -1 22 6 12 10 18 10 30 0
8 -6 18 -10 22 -8 10 5 53 -39 46 -46 -3 -3 0 -12 7 -21 10 -12 10 -18 0 -30
-7 -9 -10 -18 -7 -21 7 -7 -36 -51 -46 -46 -4 2 -14 -2 -22 -8 -12 -10 -18
-10 -30 0 -8 6 -18 10 -22 8 -10 -5 -53 39 -46 46 3 3 0 12 -7 21 -10 12 -10
18 0 30 7 9 10 18 6 22 -3 3 3 13 14 20 11 8 17 19 14 25 -4 6 -9 5 -15 -3 -6
-10 -45 -15 -144 -19 -120 -4 -138 -7 -151 -24 -16 -23 -19 -126 -4 -126 6 0
10 24 10 53 0 29 5 58 12 65 8 8 50 12 124 12 l113 0 -2 -35 -2 -35 -92 0 -93
0 0 -35 0 -35 105 0 c63 0 105 4 105 10 0 6 -38 10 -95 10 -78 0 -95 3 -95 15
0 23 162 21 189 -2 19 -16 19 -17 -5 -64 -13 -27 -24 -51 -24 -54 0 -4 13 -4
29 0 24 5 32 2 41 -14 16 -32 28 -25 35 19 8 47 20 45 29 -5 8 -40 20 -45 36
-14 9 16 17 19 41 14 35 -8 36 -1 4 50 -28 46 -31 65 -10 65 9 0 15 9 15 23 0
13 5 28 12 35 9 9 9 15 0 24 -7 7 -12 22 -12 35 0 14 -6 23 -15 23 -8 0 -15 7
-15 15 0 14 -11 19 -37 16 -6 -1 -14 3 -18 9 -8 13 -16 12 -39 -5z m0 -237
c-3 -13 -6 -29 -6 -36 0 -10 -4 -10 -22 0 -13 7 -24 14 -26 15 -12 5 23 43 40
43 16 0 19 -4 14 -22z m94 1 c7 -11 10 -21 8 -22 -2 -1 -13 -8 -25 -15 -20
-11 -23 -10 -23 7 0 11 -3 26 -6 35 -9 25 33 20 46 -5z"/>
<path d="M455 545 c-14 -13 -25 -33 -25 -45 0 -27 43 -70 70 -70 24 0 70 42
70 65 0 24 -17 17 -24 -10 -9 -35 -51 -44 -78 -17 -42 42 7 101 61 72 13 -7
21 -7 21 -1 0 13 -33 31 -55 31 -9 0 -27 -11 -40 -25z"/>
<path d="M514 509 c-3 -6 -17 -8 -30 -5 -27 7 -32 -5 -10 -23 12 -10 20 -9 40
4 26 17 34 35 17 35 -6 0 -13 -5 -17 -11z"/>
<path d="M120 245 l0 -145 -50 0 c-46 0 -50 -2 -50 -23 0 -31 29 -57 63 -57
38 0 34 18 -5 22 -22 2 -34 9 -36 21 -3 16 12 17 206 17 201 0 210 -1 215 -20
5 -19 0 -20 -164 -20 -106 0 -169 -4 -169 -10 0 -6 73 -10 198 -10 245 0 232
-7 232 138 0 61 -4 102 -10 102 -6 0 -10 -40 -10 -99 0 -75 -4 -101 -15 -111
-19 -16 -45 3 -45 31 0 18 -10 19 -170 19 l-170 0 0 145 c0 90 -4 145 -10 145
-6 0 -10 -55 -10 -145z"/>
<path d="M240 370 c0 -6 30 -10 70 -10 40 0 70 4 70 10 0 6 -30 10 -70 10 -40
0 -70 -4 -70 -10z"/>
<path d="M180 320 c0 -6 37 -10 90 -10 53 0 90 4 90 10 0 6 -37 10 -90 10 -53
0 -90 -4 -90 -10z"/>
<path d="M180 270 c0 -6 50 -10 130 -10 80 0 130 4 130 10 0 6 -50 10 -130 10
-80 0 -130 -4 -130 -10z"/>
<path d="M180 220 c0 -6 38 -10 95 -10 57 0 95 4 95 10 0 6 -38 10 -95 10 -57
0 -95 -4 -95 -10z"/>
<path d="M399 199 c-18 -18 -19 -50 -3 -68 5 -6 63 -6 68 0 16 18 15 50 -3 68
-26 26 -36 26 -62 0z m51 -15 c11 -12 10 -18 -3 -32 -16 -15 -18 -15 -34 0
-13 14 -14 20 -3 32 7 9 16 16 20 16 4 0 13 -7 20 -16z"/>
<path d="M180 170 c0 -6 35 -10 85 -10 50 0 85 4 85 10 0 6 -35 10 -85 10 -50
0 -85 -4 -85 -10z"/>
</g>
</svg>
