<?xml version="1.0" standalone="no"?>
<!DOCTYPE svg PUBLIC "-//W3C//DTD SVG 20010904//EN"
 "http://www.w3.org/TR/2001/REC-SVG-20010904/DTD/svg10.dtd">
<svg version="1.0" xmlns="http://www.w3.org/2000/svg"
 width="64.000000pt" height="64.000000pt" viewBox="0 0 64.000000 64.000000"
 preserveAspectRatio="xMidYMid meet">

<g transform="translate(0.000000,64.000000) scale(0.100000,-0.100000)"
fill="#000000" stroke="none">
<path d="M55 596 c-14 -21 -16 -58 -13 -255 2 -172 6 -233 16 -243 9 -9 53
-14 140 -16 105 -3 130 -7 147 -22 51 -46 127 -54 183 -20 44 27 75 96 66 146
-8 44 -48 92 -91 110 l-33 14 0 91 0 91 -56 64 -56 64 -144 0 c-141 0 -144 0
-159 -24z m275 -32 c0 -71 11 -84 75 -84 l55 0 0 -85 c0 -79 -1 -85 -20 -85
-43 0 -102 -40 -119 -81 l-16 -39 -92 0 c-50 0 -95 -4 -98 -10 -4 -6 28 -10
89 -10 70 0 96 -3 96 -12 0 -7 3 -23 6 -35 6 -23 6 -23 -108 -23 -75 0 -118 4
-126 12 -17 17 -17 469 0 486 8 8 53 12 135 12 l123 0 0 -46z m75 -24 l39 -40
-42 0 -42 0 0 40 c0 22 1 40 3 40 2 0 21 -18 42 -40z m102 -267 c50 -23 78
-87 63 -142 -32 -119 -201 -124 -240 -7 -19 59 8 122 63 150 41 20 71 20 114
-1z"/>
<path d="M224 487 c-2 -7 -4 -49 -2 -93 l3 -79 35 0 35 0 0 90 0 90 -33 3
c-21 2 -34 -2 -38 -11z m56 -82 c0 -68 -2 -75 -20 -75 -18 0 -20 7 -20 75 0
68 2 75 20 75 18 0 20 -7 20 -75z"/>
<path d="M324 426 c-3 -7 -4 -35 -2 -62 3 -49 3 -49 41 -52 l37 -3 0 65 0 66
-35 0 c-21 0 -38 -6 -41 -14z m56 -51 c0 -38 -3 -45 -20 -45 -17 0 -20 7 -20
45 0 38 3 45 20 45 17 0 20 -7 20 -45z"/>
<path d="M114 386 c-3 -8 -4 -27 -2 -43 3 -24 8 -28 41 -31 l37 -3 0 45 c0 46
0 46 -35 46 -22 0 -38 -6 -41 -14z m66 -31 c0 -20 -5 -25 -25 -25 -20 0 -25 5
-25 25 0 20 5 25 25 25 20 0 25 -5 25 -25z"/>
<path d="M120 240 c0 -6 35 -10 85 -10 50 0 85 4 85 10 0 6 -35 10 -85 10 -50
0 -85 -4 -85 -10z"/>
<path d="M412 236 c-28 -41 -19 -68 28 -84 32 -12 40 -39 14 -49 -11 -4 -23 2
-34 17 -26 34 -32 8 -7 -28 26 -38 33 -39 58 -9 29 35 24 65 -16 88 -37 22
-45 43 -20 53 9 3 20 -3 27 -14 16 -25 28 -26 28 -2 0 16 -38 62 -51 62 -2 0
-14 -16 -27 -34z"/>
</g>
</svg>
