<?xml version="1.0" standalone="no"?>
<!DOCTYPE svg PUBLIC "-//W3C//DTD SVG 20010904//EN"
 "http://www.w3.org/TR/2001/REC-SVG-20010904/DTD/svg10.dtd">
<svg version="1.0" xmlns="http://www.w3.org/2000/svg"
 width="64.000000pt" height="64.000000pt" viewBox="0 0 64.000000 64.000000"
 preserveAspectRatio="xMidYMid meet">

<g transform="translate(0.000000,64.000000) scale(0.100000,-0.100000)"
fill="#000000" stroke="none">
<path d="M132 575 c9 -76 32 -97 131 -119 20 -5 27 -12 27 -31 0 -15 -6 -25
-14 -25 -18 0 -41 -28 -31 -38 4 -4 10 -1 12 6 3 8 26 12 64 12 52 0 59 -2 59
-20 0 -18 -7 -20 -74 -20 l-74 0 -12 -50 c-10 -42 -16 -50 -35 -50 -19 0 -25
-8 -35 -50 -11 -47 -14 -50 -45 -50 -30 0 -33 -3 -44 -44 -6 -24 -13 -51 -17
-60 -5 -13 0 -16 25 -16 17 0 31 5 31 10 0 6 -8 10 -19 10 -16 0 -17 4 -8 40
l11 40 56 0 56 0 11 -40 10 -40 -48 0 c-27 0 -49 -4 -49 -10 0 -6 72 -10 195
-10 123 0 195 4 195 10 0 6 -20 10 -44 10 l-43 0 10 40 11 40 56 0 56 0 11
-40 c10 -38 9 -40 -13 -40 -13 0 -24 -4 -24 -10 0 -5 16 -10 36 -10 29 0 35 3
30 16 -4 9 -11 36 -17 60 l-11 44 -118 0 -117 0 10 40 11 40 57 0 c55 0 57 -1
63 -32 3 -17 9 -28 12 -25 4 3 3 22 0 42 -6 28 -11 35 -30 35 -20 0 -25 9 -43
73 -14 53 -25 75 -41 82 -33 15 -29 53 6 61 90 20 113 37 127 97 10 38 -9 34
-20 -5 -10 -32 -59 -77 -71 -65 -4 3 7 20 25 36 36 33 41 61 11 61 -11 0 -20
5 -20 10 0 6 18 10 40 10 22 0 40 5 40 10 0 6 -45 10 -115 10 -70 0 -115 -4
-115 -10 0 -6 28 -10 65 -10 l65 0 0 -41 c0 -52 -42 -99 -90 -99 -48 0 -90 47
-90 99 0 30 4 41 15 41 8 0 15 5 15 10 0 6 -29 10 -66 10 l-67 0 5 -45z m78
15 c0 -5 -9 -10 -20 -10 -30 0 -25 -29 11 -66 28 -29 29 -32 10 -27 -30 8 -61
50 -61 84 0 26 4 29 30 29 17 0 30 -4 30 -10z m0 -45 c0 -8 -2 -15 -4 -15 -2
0 -6 7 -10 15 -3 8 -1 15 4 15 6 0 10 -7 10 -15z m234 0 c-4 -8 -8 -15 -10
-15 -2 0 -4 7 -4 15 0 8 4 15 10 15 5 0 7 -7 4 -15z m-114 -125 c0 -11 -4 -20
-10 -20 -5 0 -10 9 -10 20 0 11 5 20 10 20 6 0 10 -9 10 -20z m77 -140 l10
-40 -38 0 c-36 0 -39 -2 -45 -35 -7 -41 -20 -46 -26 -10 -3 14 -1 25 3 25 5 0
9 5 9 10 0 6 -22 10 -49 10 l-48 0 10 40 11 40 76 0 76 0 11 -40z m-110 -100
c10 -40 10 -40 -18 -40 -24 0 -29 -5 -35 -35 -7 -41 -20 -46 -26 -10 -3 14 -1
25 3 25 5 0 9 5 9 10 0 6 -17 10 -39 10 l-38 0 10 40 11 40 56 0 56 0 11 -40z
m90 -100 l10 -40 -77 0 -77 0 10 40 11 40 56 0 56 0 11 -40z m35 15 c-6 -32
-18 -32 -24 0 -4 19 -1 25 12 25 13 0 16 -6 12 -25z"/>
<path d="M260 290 c0 -6 27 -10 60 -10 33 0 60 4 60 10 0 6 -27 10 -60 10 -33
0 -60 -4 -60 -10z"/>
<path d="M190 190 c0 -5 18 -10 40 -10 22 0 40 5 40 10 0 6 -18 10 -40 10 -22
0 -40 -4 -40 -10z"/>
<path d="M280 90 c0 -5 18 -10 40 -10 22 0 40 5 40 10 0 6 -18 10 -40 10 -22
0 -40 -4 -40 -10z"/>
<path d="M32 594 c-11 -12 -10 -17 2 -30 15 -14 17 -14 32 0 14 14 14 18 0 31
-18 18 -18 18 -34 -1z"/>
<path d="M572 594 c-11 -12 -10 -17 2 -30 15 -14 17 -14 32 0 14 14 14 18 0
31 -18 18 -18 18 -34 -1z"/>
<path d="M303 566 c-7 -8 -18 -16 -25 -18 -11 -4 -11 -8 0 -21 8 -9 11 -21 7
-27 -4 -6 6 -10 27 -10 26 0 36 6 46 28 8 18 9 28 2 30 -6 2 -17 10 -24 18
-17 17 -18 17 -33 0z m31 -41 c-4 -8 -10 -15 -14 -15 -4 0 -10 7 -14 15 -4 10
1 15 14 15 13 0 18 -5 14 -15z"/>
<path d="M82 524 c-11 -12 -10 -17 2 -30 15 -14 17 -14 32 0 14 14 14 18 0 31
-18 18 -18 18 -34 -1z"/>
<path d="M502 484 c-11 -12 -10 -17 2 -30 15 -14 17 -14 32 0 14 14 14 18 0
31 -18 18 -18 18 -34 -1z"/>
<path d="M30 480 c0 -5 5 -10 10 -10 6 0 10 5 10 10 0 6 -4 10 -10 10 -5 0
-10 -4 -10 -10z"/>
<path d="M590 480 c0 -5 5 -10 10 -10 6 0 10 5 10 10 0 6 -4 10 -10 10 -5 0
-10 -4 -10 -10z"/>
<path d="M32 414 c-11 -12 -10 -17 2 -30 15 -14 17 -14 32 0 14 14 14 18 0 31
-18 18 -18 18 -34 -1z"/>
<path d="M190 420 c0 -5 5 -10 10 -10 6 0 10 5 10 10 0 6 -4 10 -10 10 -5 0
-10 -4 -10 -10z"/>
<path d="M430 420 c0 -5 5 -10 10 -10 6 0 10 5 10 10 0 6 -4 10 -10 10 -5 0
-10 -4 -10 -10z"/>
<path d="M562 404 c-11 -12 -10 -17 2 -30 15 -14 17 -14 32 0 14 14 14 18 0
31 -18 18 -18 18 -34 -1z"/>
<path d="M120 370 c0 -5 5 -10 10 -10 6 0 10 5 10 10 0 6 -4 10 -10 10 -5 0
-10 -4 -10 -10z"/>
<path d="M170 375 c0 -12 24 -55 32 -55 11 0 10 4 -4 35 -9 21 -28 35 -28 20z"/>
<path d="M442 355 c-14 -31 -15 -35 -4 -35 8 0 32 43 32 55 0 15 -19 1 -28
-20z"/>
<path d="M500 370 c0 -5 5 -10 10 -10 6 0 10 5 10 10 0 6 -4 10 -10 10 -5 0
-10 -4 -10 -10z"/>
<path d="M42 324 c-11 -12 -10 -17 2 -30 15 -14 17 -14 32 0 14 14 14 18 0 31
-18 18 -18 18 -34 -1z"/>
<path d="M140 295 c19 -19 38 -35 44 -35 5 0 -5 16 -24 35 -19 19 -38 35 -44
35 -5 0 5 -16 24 -35z"/>
<path d="M480 295 c-19 -19 -29 -35 -24 -35 6 0 25 16 44 35 19 19 29 35 24
35 -6 0 -25 -16 -44 -35z"/>
<path d="M570 300 c0 -5 5 -10 10 -10 6 0 10 5 10 10 0 6 -4 10 -10 10 -5 0
-10 -4 -10 -10z"/>
<path d="M80 263 c1 -12 51 -46 57 -39 3 3 -5 14 -18 25 -25 21 -39 26 -39 14z"/>
<path d="M521 249 c-13 -11 -21 -22 -18 -25 6 -7 56 27 57 39 0 12 -14 7 -39
-14z"/>
<path d="M40 195 c0 -4 67 -35 76 -35 2 0 4 4 4 9 0 5 -14 14 -31 20 -35 12
-49 14 -49 6z"/>
<path d="M370 190 c0 -5 18 -10 40 -10 22 0 40 5 40 10 0 6 -18 10 -40 10 -22
0 -40 -4 -40 -10z"/>
<path d="M548 188 c-16 -5 -28 -14 -28 -19 0 -12 1 -12 44 6 56 24 42 35 -16
13z"/>
<path d="M100 90 c0 -5 18 -10 40 -10 22 0 40 5 40 10 0 6 -18 10 -40 10 -22
0 -40 -4 -40 -10z"/>
<path d="M460 90 c0 -5 18 -10 40 -10 22 0 40 5 40 10 0 6 -18 10 -40 10 -22
0 -40 -4 -40 -10z"/>
</g>
</svg>
