<?xml version="1.0" standalone="no"?>
<!DOCTYPE svg PUBLIC "-//W3C//DTD SVG 20010904//EN"
 "http://www.w3.org/TR/2001/REC-SVG-20010904/DTD/svg10.dtd">
<svg version="1.0" xmlns="http://www.w3.org/2000/svg"
 width="24.000000pt" height="24.000000pt" viewBox="0 0 24.000000 24.000000"
 preserveAspectRatio="xMidYMid meet">

<g transform="translate(0.000000,24.000000) scale(0.100000,-0.100000)"
fill="#000000" stroke="none">
<path d="M75 211 c-33 -15 -65 -56 -71 -92 -6 -39 11 -93 26 -84 6 4 7 13 1
23 -28 55 20 132 84 138 67 5 124 -79 94 -138 -6 -10 -5 -19 1 -23 15 -9 32
46 26 85 -11 68 -99 118 -161 91z"/>
<path d="M135 130 c-31 -20 -40 -45 -17 -45 7 0 22 15 33 33 24 38 24 38 -16
12z"/>
</g>
</svg>
